<svg xmlns="http://www.w3.org/2000/svg" viewBox="0 0 24 24" aria-hidden="true">
  <path fill="#ffffff" d="M20.52 3.48A11.8 11.8 0 0 0 12.04 0C5.53 0 .24 5.29.24 11.8c0 2.08.54 4.11 1.57 5.91L0 24l6.47-1.7a11.77 11.77 0 0 0 5.57 1.42h.01c6.5 0 11.79-5.29 11.79-11.8 0-3.15-1.23-6.11-3.32-8.44Zm-8.48 18.24h-.01a9.88 9.88 0 0 1-5.03-1.37l-.36-.21-3.84 1.01 1.02-3.74-.24-.38a9.87 9.87 0 0 1-1.53-5.24c0-5.45 4.43-9.88 9.89-9.88 2.64 0 5.11 1.03 6.98 2.9a9.8 9.8 0 0 1 2.9 6.98c0 5.45-4.43 9.88-9.88 9.88Zm5.42-7.42c-.3-.15-1.77-.87-2.05-.97-.27-.1-.47-.15-.67.15-.19.3-.77.97-.94 1.17-.17.19-.35.22-.65.07-.3-.15-1.26-.47-2.41-1.49-.89-.79-1.49-1.77-1.66-2.07-.17-.29-.02-.45.13-.59.13-.13.29-.35.44-.52.15-.17.2-.3.3-.5.1-.2.05-.37-.03-.52-.07-.15-.67-1.62-.92-2.21-.24-.58-.49-.5-.67-.51h-.57c-.2 0-.52.08-.79.38-.27.3-1.04 1.02-1.04 2.49s1.07 2.9 1.22 3.1c.15.2 2.1 3.2 5.09 4.49.71.31 1.27.49 1.7.63.72.23 1.37.2 1.89.12.58-.09 1.77-.72 2.02-1.42.25-.69.25-1.29.18-1.42-.08-.12-.28-.2-.57-.35Z"/>
</svg>
